# xmcd CD database file
#
# Track frame offsets:
#	150
#	30344
#	48112
#	63874
#	121837
#	156383
#	181625
#	208034
#	239383
#	262989
#	286821
#	316082
#
# Disc length: 4498 seconds
#
# Revision: 0
# Processed by: cddbd v1.5.1PL0 Copyright (c) Steve Scherf et al.
# Submitted via: CDex 1.51
#
DISCID=9311900c
DTITLE=Blue Note by Bobby Flores - Black Crazy Nights
DYEAR=2005
DGENRE=Jazz
TTITLE0=Sunshine-Nancy Wilson
TTITLE1=All About My Girl-Jimmy McGriff
TTITLE2=Fever-Ronnie Laws
TTITLE3=Jeanine-Donald Byrd
TTITLE4=Fat Judy-Big John Patton
TTITLE5=Good Humor man-Blue Mitchell
TTITLE6=Every Generation-Ronnie Laws
TTITLE7=8x4 beat-Bobby Hutcherson
TTITLE8=I´m Moving On-Jimmy smith
TTITLE9=Light My Fire-John Andrews Tartaglia
TTITLE10=Ode to Billy Joe-Lou Donaldson
TTITLE11=Meat Wave-Stanley Turrentine
EXTD=YEAR: 2005
EXTT0=
EXTT1=
EXTT2=
EXTT3=
EXTT4=
EXTT5=
EXTT6=
EXTT7=
EXTT8=
EXTT9=
EXTT10=
EXTT11=
PLAYORDER=
